REM DIRINDEX 1\2,1\3,1\4,1\5\6,1\5\7,1\8
REM DIRNAME cjc115,folder01,folder02,folder03,folder04,folder05,folder06,folder07
TITLE ""
FILE "017 【017】Unit1 (0193 hostile_0204 properly).mp3" MP3
  TRACK 01 AUDIO
    TITLE "0:"
    INDEX 01 00:00:00
  TRACK 02 AUDIO
    TITLE "2:cjc115_0578"
    INDEX 01 00:00:05
  TRACK 03 AUDIO
    TITLE "0:"
    INDEX 01 00:01:15
  TRACK 04 AUDIO
    TITLE "3:cjc115_0579"
    INDEX 01 00:01:26
  TRACK 05 AUDIO
    TITLE "0:"
    INDEX 01 00:03:29
  TRACK 06 AUDIO
    TITLE "4:cjc115_0580"
    INDEX 01 00:03:43
  TRACK 07 AUDIO
    TITLE "0:"
    INDEX 01 00:07:03
  TRACK 08 AUDIO
    TITLE "2:cjc115_0581"
    INDEX 01 00:08:17
  TRACK 09 AUDIO
    TITLE "0:"
    INDEX 01 00:09:20
  TRACK 10 AUDIO
    TITLE "3:cjc115_0582"
    INDEX 01 00:09:30
  TRACK 11 AUDIO
    TITLE "0:"
    INDEX 01 00:12:38
  TRACK 12 AUDIO
    TITLE "4:cjc115_0583"
    INDEX 01 00:12:52
  TRACK 13 AUDIO
    TITLE "0:"
    INDEX 01 00:16:69
  TRACK 14 AUDIO
    TITLE "2:cjc115_0584"
    INDEX 01 00:18:07
  TRACK 15 AUDIO
    TITLE "0:"
    INDEX 01 00:19:44
  TRACK 16 AUDIO
    TITLE "3:cjc115_0585"
    INDEX 01 00:19:52
  TRACK 17 AUDIO
    TITLE "0:"
    INDEX 01 00:21:21
  TRACK 18 AUDIO
    TITLE "4:cjc115_0586"
    INDEX 01 00:21:37
  TRACK 19 AUDIO
    TITLE "0:"
    INDEX 01 00:24:18
  TRACK 20 AUDIO
    TITLE "2:cjc115_0587"
    INDEX 01 00:25:29
  TRACK 21 AUDIO
    TITLE "0:"
    INDEX 01 00:26:62
  TRACK 22 AUDIO
    TITLE "3:cjc115_0588"
    INDEX 01 00:26:69
  TRACK 23 AUDIO
    TITLE "0:"
    INDEX 01 00:29:11
  TRACK 24 AUDIO
    TITLE "4:cjc115_0589"
    INDEX 01 00:29:21
  TRACK 25 AUDIO
    TITLE "0:"
    INDEX 01 00:33:17
  TRACK 26 AUDIO
    TITLE "2:cjc115_0590"
    INDEX 01 00:34:30
  TRACK 27 AUDIO
    TITLE "0:"
    INDEX 01 00:35:59
  TRACK 28 AUDIO
    TITLE "3:cjc115_0591"
    INDEX 01 00:35:68
  TRACK 29 AUDIO
    TITLE "0:"
    INDEX 01 00:37:71
  TRACK 30 AUDIO
    TITLE "4:cjc115_0592"
    INDEX 01 00:38:12
  TRACK 31 AUDIO
    TITLE "0:"
    INDEX 01 00:42:35
  TRACK 32 AUDIO
    TITLE "2:cjc115_0593"
    INDEX 01 00:43:48
  TRACK 33 AUDIO
    TITLE "0:"
    INDEX 01 00:44:65
  TRACK 34 AUDIO
    TITLE "3:cjc115_0594"
    INDEX 01 00:45:02
  TRACK 35 AUDIO
    TITLE "0:"
    INDEX 01 00:46:41
  TRACK 36 AUDIO
    TITLE "4:cjc115_0595"
    INDEX 01 00:46:60
  TRACK 37 AUDIO
    TITLE "0:"
    INDEX 01 00:50:66
  TRACK 38 AUDIO
    TITLE "2:cjc115_0596"
    INDEX 01 00:52:04
  TRACK 39 AUDIO
    TITLE "0:"
    INDEX 01 00:53:23
  TRACK 40 AUDIO
    TITLE "3:cjc115_0597"
    INDEX 01 00:53:35
  TRACK 41 AUDIO
    TITLE "0:"
    INDEX 01 00:55:42
  TRACK 42 AUDIO
    TITLE "4:cjc115_0598"
    INDEX 01 00:55:53
  TRACK 43 AUDIO
    TITLE "0:"
    INDEX 01 01:00:17
  TRACK 44 AUDIO
    TITLE "2:cjc115_0599"
    INDEX 01 01:01:29
  TRACK 45 AUDIO
    TITLE "0:"
    INDEX 01 01:02:44
  TRACK 46 AUDIO
    TITLE "3:cjc115_0600"
    INDEX 01 01:02:55
  TRACK 47 AUDIO
    TITLE "0:"
    INDEX 01 01:04:03
  TRACK 48 AUDIO
    TITLE "4:cjc115_0601"
    INDEX 01 01:04:21
  TRACK 49 AUDIO
    TITLE "0:"
    INDEX 01 01:07:23
  TRACK 50 AUDIO
    TITLE "2:cjc115_0602"
    INDEX 01 01:08:36
  TRACK 51 AUDIO
    TITLE "0:"
    INDEX 01 01:09:63
  TRACK 52 AUDIO
    TITLE "3:cjc115_0603"
    INDEX 01 01:10:02
  TRACK 53 AUDIO
    TITLE "0:"
    INDEX 01 01:11:56
  TRACK 54 AUDIO
    TITLE "4:cjc115_0604"
    INDEX 01 01:11:68
  TRACK 55 AUDIO
    TITLE "0:"
    INDEX 01 01:16:20
  TRACK 56 AUDIO
    TITLE "2:cjc115_0605"
    INDEX 01 01:17:32
  TRACK 57 AUDIO
    TITLE "0:"
    INDEX 01 01:18:60
  TRACK 58 AUDIO
    TITLE "3:cjc115_0606"
    INDEX 01 01:18:72
  TRACK 59 AUDIO
    TITLE "0:"
    INDEX 01 01:20:06
  TRACK 60 AUDIO
    TITLE "4:cjc115_0607"
    INDEX 01 01:20:18
  TRACK 61 AUDIO
    TITLE "0:"
    INDEX 01 01:24:26
  TRACK 62 AUDIO
    TITLE "2:cjc115_0608"
    INDEX 01 01:25:41
  TRACK 63 AUDIO
    TITLE "0:"
    INDEX 01 01:26:50
  TRACK 64 AUDIO
    TITLE "3:cjc115_0609"
    INDEX 01 01:26:62
  TRACK 65 AUDIO
    TITLE "0:"
    INDEX 01 01:29:11
  TRACK 66 AUDIO
    TITLE "4:cjc115_0610"
    INDEX 01 01:29:25
  TRACK 67 AUDIO
    TITLE "0:"
    INDEX 01 01:32:47
  TRACK 68 AUDIO
    TITLE "2:cjc115_0611"
    INDEX 01 01:33:60
  TRACK 69 AUDIO
    TITLE "0:"
    INDEX 01 01:34:69
  TRACK 70 AUDIO
    TITLE "3:cjc115_0612"
    INDEX 01 01:35:06
  TRACK 71 AUDIO
    TITLE "0:"
    INDEX 01 01:37:15
  TRACK 72 AUDIO
    TITLE "4:cjc115_0613"
    INDEX 01 01:37:26
  TRACK 73 AUDIO
    TITLE "0:"
    INDEX 01 01:42:02
